<svg id="a" xmlns="http://www.w3.org/2000/svg" viewBox="0 0 34.5 93.2"><path d="M27,58.3v30.2c0,2.5-1.9,4.5-4.4,4.6s-4.5-1.9-4.6-4.4V53.3c0-.3-.3-.6-.6-.6h-.1c-.3,0-.6,.3-.6,.6h0v35.3c0,2.4-1.9,4.5-4.3,4.6-2.2,.1-4.2-1.4-4.6-3.6,0-.4-.1-.8,0-1.2V27.4l-.6-.6c-.3,0-.5,.2-.6,.4-.2,.2,0,.5,0,.8v21.6c0,1.6-1.2,3.1-2.8,3.3-1.7,.2-3.3-1-3.6-2.7H0v-1.2c0-8.5,.1-16.9,0-25.3,0-3.2,1.5-5.1,4.2-6.4,1.1-.5,2.2-.7,3.4-.7H26.8c2.9-.1,5.5,1.3,7,3.8,.5,.8,.8,1.8,.7,2.8v26.6c0,1.7-1.4,3.1-3.1,3.1s-3.1-1.4-3.1-3.1V27.3c-.1-.3-.3-.6-.7-.5s-.4,.3-.6,.6,0,.3,0,.5v30.4Z" style="fill:#030404;"/><path d="M17.3,14.4c-4,0-7.2-3.1-7.3-7.1C9.9,3.3,13.1,0,17.1,0c4,0,7.2,3.1,7.3,7.1,0,0,0,.1,0,.2h0c0,3.9-3.2,7.1-7.1,7.1h0Z" style="fill:#030404;"/></svg>